# xmcd
#
# Track frame offsets: 
#        150
#        12126
#        25149
#        37124
#        50623
#        61603
#        72395
#        86182
#        99937
#        115100
#        126330
#        139615
#        152698
#        163285
#        177718
#        192021
#        204255
#        220749
#        234997
#        250486
#
# Disc length: 3515 seconds
#
# Revision: 0
# Processed by: cddbd v1.5.2PL0 Copyright (c) Steve Scherf et al.
# Submitted via: ExactAudioCopyFreeDBPlugin 1.0
#
DISCID=170db914
DTITLE=Wynette, Tammy - The Essential Tammy Wynette Disc 2
DYEAR=2013
DGENRE=Country
TTITLE0='Til I Get It Right
TTITLE1=Kids Say the Darndest Things
TTITLE2=Another Lonely Song
TTITLE3=Woman to Woman
TTITLE4=(You Make Me Want to Be) A Mother
TTITLE5=I Still Believe in Fairy Tales
TTITLE6='Til I Can Make It on My Own
TTITLE7=Golden Ring
TTITLE8=You and Me
TTITLE9=(Let's Get Together) One Last Time
TTITLE10=One of a Kind
TTITLE11=Womanhood
TTITLE12=They Call It Making Love
TTITLE13=No One Else in the World
TTITLE14=Crying in the Rain
TTITLE15=Another Chance
TTITLE16=Sometimes When We Touch
TTITLE17=Your Love
TTITLE18=Talkin' to Myself Again
TTITLE19=That's the Way It Could Have Been
EXTD=
EXTT0=
EXTT1=
EXTT2=
EXTT3=
EXTT4=
EXTT5=
EXTT6=
EXTT7=
EXTT8=
EXTT9=
EXTT10=
EXTT11=
EXTT12=
EXTT13=
EXTT14=
EXTT15=
EXTT16=
EXTT17=
EXTT18=
EXTT19=
PLAYORDER=
